<?xml version="1.0" standalone="no"?>
<!DOCTYPE svg PUBLIC "-//W3C//DTD SVG 20010904//EN"
 "http://www.w3.org/TR/2001/REC-SVG-20010904/DTD/svg10.dtd">
<svg version="1.0" xmlns="http://www.w3.org/2000/svg"
 width="640.000000pt" height="640.000000pt" viewBox="0 0 640.000000 640.000000"
 preserveAspectRatio="xMidYMid meet">
<metadata>
Created by potrace 1.14, written by Peter Selinger 2001-2017
</metadata>
<g transform="translate(0.000000,640.000000) scale(0.100000,-0.100000)"
fill="#000000" stroke="none">
<path d="M2486 6350 c222 -160 283 -203 415 -295 247 -172 583 -386 605 -384
5 0 19 12 31 28 l21 27 -75 85 c-127 141 -181 199 -302 324 -64 66 -147 153
-184 193 l-69 72 -256 0 -256 0 70 -50z"/>
<path d="M3067 6322 c161 -129 400 -360 540 -524 25 -29 40 -37 75 -41 57 -6
85 -21 147 -80 56 -53 63 -52 103 26 126 247 122 311 -25 487 -55 66 -67 75
-100 78 -33 3 -43 -3 -92 -49 -30 -28 -82 -94 -116 -146 l-61 -95 -97 94
c-114 112 -156 151 -276 252 -87 74 -92 76 -143 76 l-53 0 98 -78z"/>
<path d="M3884 6379 c-8 -17 0 -30 51 -82 71 -73 204 -222 223 -249 7 -10 18
-18 23 -18 6 0 52 37 102 83 112 101 220 189 332 272 18 13 -22 14 -351 15
-365 0 -371 0 -380 -21z"/>
<path d="M4728 6348 c-95 -79 -282 -270 -381 -388 -85 -102 -297 -390 -297
-404 0 -4 -9 -20 -21 -35 -15 -21 -19 -35 -13 -52 4 -13 7 -28 5 -34 -1 -5 1
-7 5 -3 4 4 13 0 20 -10 12 -16 18 -15 81 18 276 141 558 331 813 548 134 114
290 274 290 298 0 11 3 42 6 68 l7 46 -226 0 -226 0 -63 -52z"/>
<path d="M5450 6287 c-131 -129 -251 -237 -395 -356 -55 -46 -111 -92 -124
-103 -60 -50 -357 -271 -456 -339 -168 -116 -302 -206 -321 -217 -17 -9 -16
-14 10 -68 31 -63 68 -164 60 -164 -3 0 1 -6 9 -14 12 -13 20 -12 56 6 22 11
41 25 41 30 0 6 -11 42 -25 80 -29 79 -31 113 -10 154 32 65 148 151 192 142
18 -3 83 -118 86 -150 1 -10 5 -18 10 -18 4 0 17 -21 28 -46 16 -35 24 -44 37
-38 9 3 81 30 160 58 l142 51 0 35 c0 19 7 81 15 138 l15 102 -25 44 c-14 25
-25 51 -25 59 0 8 57 68 127 133 119 111 412 406 533 537 l53 57 -39 0 c-36 0
-47 -8 -154 -113z"/>
<path d="M6225 6323 c-47 -93 -130 -204 -218 -295 l-65 -66 -4 -75 -3 -75 25
13 c32 16 148 138 211 220 54 70 125 185 147 235 8 19 17 29 19 22 7 -20 -26
-149 -60 -232 -64 -157 -135 -259 -258 -373 l-76 -72 -7 -120 c-3 -66 -9 -216
-13 -332 -5 -179 -4 -213 8 -213 8 0 25 18 39 40 13 21 26 37 28 35 4 -3 -27
-65 -38 -75 -31 -30 -40 -65 -40 -160 0 -55 4 -100 8 -100 10 0 75 137 115
240 45 114 67 182 98 299 16 63 31 116 33 118 7 8 39 -92 51 -165 35 -193 2
-441 -89 -685 -47 -124 -188 -390 -222 -418 -8 -6 -14 -29 -14 -50 0 -26 -7
-46 -22 -62 -47 -48 -93 -160 -53 -127 46 38 277 393 379 583 26 49 49 87 51
85 2 -2 -3 -127 -10 -278 -8 -151 -18 -378 -24 -505 -6 -126 -16 -313 -22
-415 l-12 -185 -42 -55 c-54 -70 -216 -313 -244 -365 -11 -22 -37 -67 -56
-100 -183 -314 -267 -509 -323 -755 -6 -25 -20 -85 -32 -135 -70 -290 -194
-898 -255 -1250 -8 -49 -29 -164 -45 -254 -39 -212 -39 -221 0 -221 23 0 31 5
35 23 5 22 25 126 166 847 39 201 74 371 79 379 11 21 100 -210 139 -365 32
-126 61 -315 61 -395 0 -135 -40 -316 -94 -426 -14 -29 -26 -55 -26 -58 0 -3
31 -5 68 -5 77 0 74 -2 162 115 108 143 188 307 230 471 79 310 33 703 -122
1041 -15 34 -28 63 -28 66 0 11 -108 199 -152 265 -27 40 -48 77 -46 82 5 13
138 -33 198 -70 153 -94 349 -281 460 -440 14 -19 30 -42 37 -50 7 -8 19 -24
27 -35 14 -19 15 -17 16 28 0 40 -7 58 -42 110 -103 153 -250 307 -378 399
-79 56 -209 123 -273 140 -26 7 -47 16 -47 20 0 28 202 397 314 573 63 99 207
302 270 380 20 24 27 49 35 125 6 52 20 174 31 270 12 96 28 234 36 305 7 72
21 186 31 255 13 100 17 236 20 689 l4 565 -30 56 c-54 100 -121 334 -121 419
0 18 10 40 28 58 32 35 72 135 101 252 15 60 21 116 21 197 l0 114 -67 0 -68
0 -40 -77z"/>
<path d="M2370 6209 c-14 -5 -40 -24 -57 -42 -27 -25 -33 -39 -33 -71 0 -23 9
-55 19 -72 38 -63 182 -169 329 -243 60 -30 116 -84 109 -105 -2 -6 -19 -10
-38 -8 l-34 4 23 -25 c13 -14 20 -27 15 -29 -4 -3 -3 -4 3 -2 17 4 95 -82 146
-161 64 -97 161 -291 193 -383 15 -42 30 -83 33 -90 8 -16 80 -43 86 -33 2 3
11 30 21 59 14 44 15 58 5 83 -11 25 -10 32 5 49 10 11 24 20 32 20 14 0 53
56 53 76 0 6 -24 23 -52 38 -184 95 -459 290 -466 330 -4 16 0 18 29 12 19 -3
65 -18 102 -32 38 -15 71 -23 74 -20 18 18 -115 330 -185 433 -53 78 -144 160
-212 192 -61 28 -158 38 -200 20z"/>
<path d="M752 6097 c-18 -19 -22 -35 -22 -83 0 -143 108 -257 375 -395 102
-53 117 -57 200 -64 115 -9 213 -28 328 -66 107 -34 138 -49 131 -60 -3 -5 1
-7 8 -4 7 3 36 -15 64 -40 46 -40 65 -48 169 -75 91 -24 120 -29 131 -19 8 6
14 16 14 21 0 5 11 24 25 42 14 18 25 36 25 40 0 3 -57 33 -126 66 -70 33
-182 92 -251 131 -69 39 -143 81 -166 94 -23 12 -91 53 -152 90 -139 86 -314
189 -385 228 -30 16 -73 40 -95 52 -61 34 -160 65 -208 65 -33 0 -49 -6 -65
-23z"/>
<path d="M0 5787 c0 -81 1 -84 33 -115 22 -21 33 -41 31 -55 -1 -12 -3 -77 -3
-144 -1 -121 -1 -122 -31 -155 l-30 -32 0 -301 1 -300 89 -95 c49 -52 90 -91
90 -87 0 4 -14 44 -31 88 -24 63 -38 85 -65 102 -18 12 -34 25 -34 29 0 4 16
10 35 13 114 17 94 27 186 -87 97 -121 139 -167 235 -262 103 -103 165 -157
174 -151 11 7 -11 107 -42 190 -29 79 -37 117 -73 335 -42 249 -44 263 -59
315 -60 218 -57 211 -105 261 -25 27 -59 58 -76 70 -27 19 -30 26 -29 73 0 47
4 56 45 97 62 64 91 77 153 71 79 -9 119 -17 141 -31 37 -24 175 -44 175 -25
0 4 -30 19 -67 33 -115 43 -425 152 -483 170 -30 10 -64 21 -75 26 -28 12
-161 50 -174 50 -7 0 -11 -30 -11 -83z"/>
<path d="M2292 5818 c-10 -13 8 -79 34 -123 11 -18 14 -17 47 12 20 17 45 34
56 38 33 10 25 20 -44 53 -73 36 -78 37 -93 20z"/>
<path d="M5620 5727 c-114 -65 -292 -147 -367 -168 l-33 -10 0 -75 0 -74 38
16 c20 8 58 24 85 35 57 23 253 120 314 156 l43 25 0 69 c0 38 -1 69 -2 69 -2
0 -37 -19 -78 -43z"/>
<path d="M2380 5695 c-11 -13 -10 -14 4 -9 9 3 16 10 16 15 0 13 -6 11 -20 -6z"/>
<path d="M5075 5650 c-3 -5 -1 -10 4 -10 6 0 11 5 11 10 0 6 -2 10 -4 10 -3 0
-8 -4 -11 -10z"/>
<path d="M380 5595 c-11 -13 -10 -14 4 -9 9 3 16 10 16 15 0 13 -6 11 -20 -6z"/>
<path d="M5625 5441 c-49 -27 -229 -101 -331 -137 l-51 -18 15 -60 c26 -108
191 -610 209 -635 5 -7 82 37 138 79 28 20 58 39 68 43 16 6 17 27 17 254 0
136 3 305 7 376 7 145 9 141 -72 98z"/>
<path d="M1770 5406 c0 -2 7 -7 16 -10 8 -3 12 -2 9 4 -6 10 -25 14 -25 6z"/>
<path d="M2215 5380 c-3 -5 -1 -10 4 -10 6 0 11 5 11 10 0 6 -2 10 -4 10 -3 0
-8 -4 -11 -10z"/>
<path d="M2328 5303 c-44 -68 -44 -68 35 -92 101 -30 98 -30 95 35 l-3 56 -50
19 c-27 10 -51 19 -51 19 -1 0 -12 -17 -26 -37z"/>
<path d="M2460 5320 c0 -5 5 -10 11 -10 5 0 7 5 4 10 -3 6 -8 10 -11 10 -2 0
-4 -4 -4 -10z"/>
<path d="M3702 5266 c-31 -43 -33 -50 -38 -163 -2 -65 -8 -138 -11 -163 l-6
-45 -8 40 c-10 53 -11 208 -1 201 4 -2 8 4 8 14 0 20 -20 17 -48 -8 -16 -13
-25 -13 -84 3 -65 17 -67 17 -77 -1 -16 -27 -20 -74 -8 -74 18 0 12 -17 -7
-23 -24 -6 -32 -45 -32 -153 l0 -84 103 0 c107 0 251 26 307 55 24 12 31 13
34 3 4 -12 63 -287 111 -517 12 -58 26 -106 31 -108 20 -6 54 98 65 194 20
195 -14 370 -114 571 -43 88 -55 95 -97 62 -21 -16 -50 -27 -50 -17 0 1 11 29
25 62 13 33 25 65 25 71 0 12 -77 117 -89 122 -4 1 -22 -18 -39 -42z"/>
<path d="M4096 5301 c-3 -5 1 -11 9 -14 9 -4 12 -1 8 9 -6 16 -10 17 -17 5z"/>
<path d="M2501 5236 c-6 -25 -11 -49 -11 -54 0 -9 198 -77 205 -71 2 3 -15 37
-38 76 -32 54 -49 73 -68 77 -15 3 -38 8 -51 11 -23 6 -26 3 -37 -39z"/>
<path d="M2630 5249 c0 -5 5 -7 10 -4 6 3 10 8 10 11 0 2 -4 4 -10 4 -5 0 -10
-5 -10 -11z"/>
<path d="M1383 5223 c-23 -16 -65 -50 -95 -77 l-53 -49 40 7 c22 4 77 16 123
28 79 20 82 22 82 50 0 39 -17 68 -39 68 -10 0 -36 -12 -58 -27z"/>
<path d="M3266 5173 c-6 -14 -5 -15 5 -6 7 7 10 15 7 18 -3 3 -9 -2 -12 -12z"/>
<path d="M4795 5142 c-60 -19 -111 -36 -112 -37 -2 -1 3 -16 9 -33 9 -23 17
-31 28 -26 8 3 35 12 59 19 l44 14 -6 -43 c-4 -24 -13 -64 -22 -91 -16 -45
-16 -48 3 -69 22 -24 46 -66 47 -81 0 -5 7 -11 16 -13 13 -2 18 13 28 80 6 46
20 135 31 198 11 63 20 116 20 118 0 7 -48 -4 -145 -36z"/>
<path d="M1972 5098 c19 -75 34 -102 42 -77 3 8 14 38 25 67 l20 54 -34 14
c-19 8 -43 14 -53 14 -18 0 -18 -2 0 -72z"/>
<path d="M1614 5108 c-5 -8 -27 -21 -49 -29 -36 -13 -40 -19 -43 -52 -4 -42
-4 -41 50 -25 38 11 39 10 67 -23 l29 -34 -15 80 c-16 85 -26 106 -39 83z"/>
<path d="M2231 5047 c-6 -26 -11 -73 -11 -103 0 -45 5 -60 25 -82 14 -15 25
-33 25 -40 0 -7 -11 -18 -25 -24 -23 -10 -25 -17 -25 -73 0 -70 17 -137 62
-245 44 -105 46 -107 76 -73 47 54 130 169 157 218 59 107 82 230 55 299 -12
31 -16 31 118 7 56 -10 102 -14 102 -9 0 26 -32 68 -53 68 -12 0 -69 9 -126
20 -100 20 -133 20 -130 3 1 -4 1 -30 0 -56 -2 -70 -21 -49 -21 23 l0 59 -42
11 c-24 6 -73 19 -109 29 l-66 17 -12 -49z"/>
<path d="M3020 5066 c0 -8 4 -17 9 -20 5 -4 7 3 4 14 -6 23 -13 26 -13 6z"/>
<path d="M1440 5028 c-14 -6 -34 -14 -45 -19 -11 -5 -42 -17 -70 -28 -46 -18
-50 -22 -48 -50 5 -52 42 -108 120 -181 41 -38 79 -70 84 -70 5 0 9 19 9 43
-1 36 -5 46 -33 66 -36 27 -107 111 -107 126 0 6 32 21 70 34 69 22 70 23 70
57 0 36 -8 40 -50 22z"/>
<path d="M1961 5024 c0 -11 3 -14 6 -6 3 7 2 16 -1 19 -3 4 -6 -2 -5 -13z"/>
<path d="M3951 5014 c0 -11 3 -14 6 -6 3 7 2 16 -1 19 -3 4 -6 -2 -5 -13z"/>
<path d="M4372 4988 c-14 -14 -16 -28 -3 -28 9 0 24 30 18 36 -2 2 -9 -2 -15
-8z"/>
<path d="M4293 4975 c-37 -16 -38 -18 -22 -81 9 -34 18 -48 37 -55 14 -5 26
-8 27 -7 2 2 5 38 7 81 4 83 3 85 -49 62z"/>
<path d="M3090 4921 c0 -10 7 -38 15 -61 8 -23 15 -60 15 -82 0 -27 4 -38 13
-36 12 5 31 174 21 190 -3 4 -18 8 -35 8 -22 0 -29 -5 -29 -19z"/>
<path d="M4912 4905 c0 -16 2 -22 5 -12 2 9 2 23 0 30 -3 6 -5 -1 -5 -18z"/>
<path d="M5360 4811 c0 -6 4 -13 10 -16 6 -3 7 1 4 9 -7 18 -14 21 -14 7z"/>
<path d="M1520 4690 l0 -40 90 -45 c50 -25 95 -43 100 -40 13 8 13 61 0 86 -6
10 -21 19 -33 19 -12 0 -51 14 -85 30 -35 17 -66 30 -68 30 -2 0 -4 -18 -4
-40z"/>
<path d="M4298 4666 c-3 -24 1 -37 10 -41 27 -10 33 -4 30 32 -4 52 -34 58
-40 9z"/>
<path d="M5605 4540 c-65 -61 -80 -80 -78 -103 0 -15 6 -34 13 -42 9 -11 25
-2 90 52 44 36 77 70 74 74 -3 5 -8 28 -12 51 l-8 43 -79 -75z"/>
<path d="M3112 4548 c-7 -24 -21 -75 -32 -113 -27 -100 -99 -230 -161 -292
l-52 -53 -108 -322 c-60 -178 -113 -332 -118 -343 -5 -11 -14 -42 -21 -70 -7
-27 -16 -59 -21 -70 -8 -18 -141 -409 -427 -1258 -99 -294 -93 -292 -106 -37
-3 74 -11 218 -16 320 -25 448 -30 544 -36 695 -4 88 -9 216 -13 285 l-6 124
-30 8 c-16 4 -91 21 -165 38 -74 18 -229 63 -344 102 -114 38 -209 68 -211 66
-1 -2 -7 -46 -13 -98 -6 -52 -13 -102 -17 -111 -4 -10 8 -25 37 -46 64 -47
194 -174 183 -179 -21 -8 -259 77 -388 139 -73 35 -180 93 -239 129 -103 64
-308 208 -327 232 -10 12 34 96 51 96 37 0 425 -210 570 -308 42 -29 80 -52
84 -52 3 0 4 9 1 20 -3 11 -1 23 4 26 5 3 9 0 9 -7 0 -7 3 -9 6 -6 4 4 1 13
-6 22 -9 11 -11 36 -6 93 l7 77 -53 19 c-73 26 -384 159 -469 201 -39 19 -79
35 -89 35 -10 0 -23 7 -30 15 -7 8 -16 15 -21 15 -5 0 -127 58 -270 130 -143
72 -262 130 -265 130 -2 0 -4 -56 -4 -124 l0 -124 98 -90 c299 -277 562 -443
1007 -637 36 -16 287 -98 368 -120 55 -16 57 -18 58 -51 1 -19 2 -37 3 -41 3
-11 15 -176 21 -298 3 -55 7 -125 10 -155 5 -66 9 -127 35 -555 11 -181 22
-357 25 -390 3 -33 10 -141 15 -240 5 -99 14 -247 20 -330 17 -249 19 -283 30
-465 22 -374 31 -497 36 -538 6 -40 8 -42 40 -42 l34 0 0 63 c0 55 -31 594
-45 782 -2 39 -9 156 -15 260 -5 105 -12 224 -16 265 -8 107 -21 354 -18 358
1 2 24 -12 51 -31 63 -45 133 -79 210 -102 l61 -18 6 -81 c8 -108 24 -514 32
-816 3 -135 8 -252 9 -261 2 -8 6 -106 10 -217 l8 -202 206 0 c194 1 228 7
142 25 -46 10 -151 58 -223 101 l-58 35 0 80 c0 46 4 79 10 79 6 0 10 -6 10
-14 0 -21 129 -148 190 -187 30 -20 84 -48 119 -63 134 -56 128 -56 1062 -56
472 0 859 3 859 8 0 4 7 120 15 257 7 138 17 315 20 395 4 80 8 161 10 180 3
19 11 184 20 365 9 182 18 341 20 354 3 14 -2 49 -11 77 -15 54 -60 105 -104
119 -17 5 -20 12 -16 33 3 15 12 92 20 172 19 185 83 770 111 1010 8 69 24
208 35 310 11 102 25 214 30 250 5 36 10 69 10 74 0 4 12 5 28 2 32 -8 379
-122 506 -166 101 -35 124 -33 44 3 -29 14 -82 38 -118 55 -36 16 -105 48
-155 71 -49 23 -111 52 -138 64 l-47 22 97 32 c54 18 130 47 169 64 67 29 70
32 66 60 -7 46 -35 45 -142 -4 -105 -49 -295 -117 -328 -117 -11 0 -23 -4 -26
-8 -3 -5 -15 -72 -26 -148 -23 -154 -55 -293 -78 -339 -63 -128 -128 -70 -211
185 -41 128 -115 440 -141 595 -20 126 -18 120 -41 99 -21 -19 -21 -20 6 -139
8 -33 30 -136 50 -230 20 -93 45 -210 56 -260 11 -49 24 -110 29 -135 5 -25
18 -85 29 -135 76 -355 118 -555 125 -598 l7 -38 -168 -170 c-92 -94 -186
-184 -208 -199 -39 -27 -119 -50 -174 -50 -54 0 -127 47 -187 123 -140 175
-250 260 -405 312 -41 14 -79 27 -85 29 -8 3 -4 36 12 108 79 345 133 784 154
1246 10 212 10 224 -8 250 -32 45 -75 150 -68 167 3 9 2 14 -3 11 -11 -7 -40
105 -44 168 -3 63 -19 69 -35 14z m-2700 -713 c31 -8 59 -19 61 -23 3 -4 -6
-24 -20 -45 l-24 -38 -59 63 c-64 69 -72 83 -37 68 12 -5 48 -16 79 -25z
m2481 -172 c25 -48 73 -83 113 -83 44 0 104 31 159 81 l43 40 6 -68 c14 -138
-29 -292 -97 -349 -39 -33 -100 -61 -151 -69 l-39 -6 30 -19 c50 -30 114 -101
134 -148 33 -77 24 -179 -25 -262 l-20 -34 -7 29 c-4 17 -12 59 -19 95 -19
108 -67 157 -136 139 -29 -8 -31 -11 -41 -89 -15 -111 -47 -172 -96 -184 -33
-8 -41 -7 -60 12 -21 21 -22 31 -21 155 1 73 9 174 18 227 35 200 90 436 136
590 l23 75 17 -51 c10 -27 25 -64 33 -81z m-1050 -472 c12 -12 47 -138 92
-336 33 -140 43 -242 29 -279 -10 -26 -41 -18 -84 20 -77 70 -280 402 -280
459 0 38 28 99 53 114 58 37 163 49 190 22z m2522 -743 c-7 -62 -34 -300 -50
-463 -22 -210 -21 -206 -50 -193 -19 8 -67 4 -222 -21 -306 -49 -311 -50 -428
-66 -402 -55 -733 -84 -1055 -89 -198 -4 -445 6 -457 18 -4 4 94 274 255 704
14 39 30 72 34 72 4 0 57 -36 119 -81 121 -87 347 -240 419 -283 25 -14 92
-50 150 -78 90 -45 116 -53 180 -58 165 -12 484 21 550 56 14 7 142 128 285
268 143 141 264 255 268 256 4 0 5 -19 2 -42z m-186 -792 c-29 -50 -168 -188
-181 -180 -6 4 -8 3 -5 -3 21 -33 -158 -105 -418 -168 -171 -42 -279 -55 -455
-55 -220 0 -390 37 -550 120 -80 42 -190 123 -190 141 0 5 4 8 10 4 23 -14
842 41 1175 80 170 20 398 54 505 75 47 10 95 18 107 19 l22 1 -20 -34z m33
-586 c18 -32 19 -50 15 -195 -6 -169 -34 -349 -62 -391 -42 -65 -173 -136
-298 -164 -83 -18 -218 -23 -332 -11 -126 13 -250 -1 -390 -43 -217 -66 -333
-71 -438 -17 -110 56 -217 172 -282 306 -76 156 -90 258 -41 290 19 13 29 12
86 -6 35 -11 68 -23 74 -28 33 -26 116 -64 175 -80 142 -39 217 -19 521 137
243 125 421 188 635 221 99 16 118 17 224 17 l94 -1 19 -35z m138 -848 c0 -35
-30 -58 -130 -99 -78 -32 -187 -59 -197 -49 -4 3 1 6 9 6 24 0 208 95 258 134
25 19 48 35 53 35 4 1 7 -12 7 -27z"/>
<path d="M3919 1433 c-13 -15 -12 -15 9 -4 23 12 28 21 13 21 -5 0 -15 -7 -22
-17z"/>
<path d="M3548 1313 c7 -3 16 -2 19 1 4 3 -2 6 -13 5 -11 0 -14 -3 -6 -6z"/>
<path d="M2820 4493 c-24 -49 -56 -107 -72 -130 -15 -23 -28 -46 -28 -51 0 -6
-3 -12 -7 -14 -9 -4 -73 -94 -73 -102 0 -3 26 -6 58 -6 53 0 61 3 89 33 48 50
73 120 84 230 13 139 3 147 -51 40z"/>
<path d="M4602 4548 c-8 -8 -12 -62 -12 -175 l0 -163 28 6 c119 28 182 49 182
60 0 12 -52 98 -64 106 -6 4 -23 8 -38 8 -28 0 -37 13 -18 25 18 11 10 49 -20
98 -32 50 -39 54 -58 35z"/>
<path d="M1520 4511 c0 -34 6 -45 48 -81 69 -62 76 -64 106 -34 14 15 23 30
21 34 -3 5 -24 18 -48 29 -23 11 -60 36 -81 56 -22 19 -41 35 -43 35 -2 0 -3
-18 -3 -39z"/>
<path d="M1944 4513 c-9 -36 -90 -162 -108 -169 -8 -3 -29 -33 -47 -67 -17
-34 -61 -114 -97 -177 -36 -63 -77 -137 -91 -164 -14 -26 -31 -50 -37 -53 -7
-3 -48 4 -91 16 -58 15 -79 17 -85 8 -5 -8 -8 -7 -8 4 0 9 -20 24 -49 36 l-49
20 -8 -41 c-4 -22 -8 -45 -8 -50 -1 -11 104 -50 189 -71 292 -71 569 -59 855
38 133 46 152 62 106 92 -36 24 -58 22 -161 -15 -49 -17 -134 -40 -188 -51
-132 -26 -337 -25 -337 1 0 5 18 21 39 37 22 15 74 53 116 83 43 30 89 65 104
78 14 12 45 37 68 55 23 18 43 36 43 40 0 5 -8 21 -19 35 -39 56 -104 238
-105 296 -1 47 -22 59 -32 19z"/>
<path d="M4550 4511 c0 -29 15 -33 18 -5 1 13 -3 24 -8 24 -6 0 -10 -9 -10
-19z"/>
<path d="M5674 4433 c-32 -43 -68 -87 -81 -99 -23 -22 -23 -22 -6 -60 10 -22
19 -41 21 -44 7 -10 192 230 192 249 0 10 -40 31 -59 31 -5 0 -35 -35 -67 -77z"/>
<path d="M4267 4473 c-3 -5 -8 -24 -12 -43 -9 -42 -87 -202 -122 -248 -13 -18
-29 -29 -35 -26 -6 4 -8 3 -5 -3 4 -6 0 -16 -8 -23 -8 -7 -15 -16 -15 -20 0
-20 129 -134 181 -161 70 -35 73 -35 87 -5 10 22 7 25 -46 51 -69 34 -173 133
-151 145 8 4 56 13 107 20 l92 13 0 132 0 131 -30 22 c-32 24 -37 26 -43 15z"/>
<path d="M667 4450 c3 -11 7 -20 9 -20 2 0 4 9 4 20 0 11 -4 20 -9 20 -5 0 -7
-9 -4 -20z"/>
<path d="M4040 4320 c-9 -6 -10 -10 -3 -10 6 0 15 5 18 10 8 12 4 12 -15 0z"/>
<path d="M371 4274 c-17 -19 -28 -40 -25 -46 21 -33 217 -188 239 -188 7 0 20
9 30 20 17 19 17 21 -18 62 -63 75 -174 188 -185 188 -5 0 -24 -16 -41 -36z"/>
<path d="M3257 4267 c-4 -10 -1 -17 6 -17 8 0 8 -3 -2 -9 -8 -5 -9 -11 -3 -15
13 -8 21 14 12 38 -6 17 -7 18 -13 3z"/>
<path d="M5217 4228 c-45 -28 -48 -33 -43 -61 3 -17 8 -33 11 -35 2 -3 27 10
55 28 51 33 60 53 38 82 -12 14 -18 13 -61 -14z"/>
<path d="M936 4231 c-4 -6 -5 -25 -1 -41 5 -25 12 -30 36 -30 36 0 36 6 0 49
-18 21 -31 29 -35 22z"/>
<path d="M2640 4169 c0 -5 5 -7 10 -4 6 3 10 8 10 11 0 2 -4 4 -10 4 -5 0 -10
-5 -10 -11z"/>
<path d="M5140 4160 c0 -5 5 -10 11 -10 5 0 7 5 4 10 -3 6 -8 10 -11 10 -2 0
-4 -4 -4 -10z"/>
<path d="M2811 4064 c0 -11 3 -14 6 -6 3 7 2 16 -1 19 -3 4 -6 -2 -5 -13z"/>
<path d="M3931 4064 c0 -11 3 -14 6 -6 3 7 2 16 -1 19 -3 4 -6 -2 -5 -13z"/>
<path d="M5238 4014 c-49 -35 -88 -70 -88 -77 0 -7 -5 -29 -11 -50 -10 -37
-11 -38 -29 -22 -21 19 -50 14 -50 -9 0 -8 -3 -21 -6 -30 -9 -23 27 -21 59 4
14 11 28 20 32 20 6 0 152 96 219 144 11 7 10 17 -2 48 -8 21 -20 38 -26 38
-6 -1 -50 -30 -98 -66z"/>
<path d="M3420 4050 c0 -11 2 -20 4 -20 2 0 6 9 9 20 3 11 1 20 -4 20 -5 0 -9
-9 -9 -20z"/>
<path d="M4800 4014 c-52 -19 -133 -41 -179 -49 -47 -8 -87 -17 -90 -20 -11
-11 -7 -47 6 -52 38 -15 336 59 371 91 9 9 10 19 3 39 -6 15 -12 27 -13 26 -2
0 -46 -16 -98 -35z"/>
<path d="M610 4019 c0 -5 5 -7 10 -4 6 3 10 8 10 11 0 2 -4 4 -10 4 -5 0 -10
-5 -10 -11z"/>
<path d="M3670 3999 c0 -5 5 -7 10 -4 6 3 10 8 10 11 0 2 -4 4 -10 4 -5 0 -10
-5 -10 -11z"/>
<path d="M1153 3967 c-29 -5 -53 -14 -53 -18 0 -7 101 -59 115 -59 3 0 5 20 5
45 0 25 -3 44 -7 44 -5 -1 -32 -6 -60 -12z"/>
<path d="M3738 3933 c7 -3 16 -2 19 1 4 3 -2 6 -13 5 -11 0 -14 -3 -6 -6z"/>
<path d="M5465 3829 c-4 -6 -5 -12 -2 -15 2 -3 7 2 10 11 7 17 1 20 -8 4z"/>
<path d="M2611 3584 c0 -11 3 -14 6 -6 3 7 2 16 -1 19 -3 4 -6 -2 -5 -13z"/>
<path d="M5447 3505 c-49 -52 -84 -95 -78 -95 11 0 184 136 189 148 1 4 -3 16
-10 25 -12 15 -22 7 -101 -78z"/>
<path d="M5575 3571 c-3 -5 -1 -12 5 -16 5 -3 10 1 10 9 0 18 -6 21 -15 7z"/>
<path d="M5586 3523 c-6 -14 -5 -15 5 -6 7 7 10 15 7 18 -3 3 -9 -2 -12 -12z"/>
<path d="M5800 3515 c0 -8 4 -15 10 -15 5 0 7 7 4 15 -4 8 -8 15 -10 15 -2 0
-4 -7 -4 -15z"/>
<path d="M5585 3479 c-4 -6 -5 -12 -2 -15 2 -3 7 2 10 11 7 17 1 20 -8 4z"/>
<path d="M5851 3444 c0 -11 3 -14 6 -6 3 7 2 16 -1 19 -3 4 -6 -2 -5 -13z"/>
<path d="M2601 3394 c0 -11 3 -14 6 -6 3 7 2 16 -1 19 -3 4 -6 -2 -5 -13z"/>
<path d="M3771 3314 c0 -11 3 -14 6 -6 3 7 2 16 -1 19 -3 4 -6 -2 -5 -13z"/>
<path d="M5605 3290 c-3 -5 1 -10 10 -10 9 0 13 5 10 10 -3 6 -8 10 -10 10 -2
0 -7 -4 -10 -10z"/>
<path d="M5289 3268 c0 -7 -2 -22 -4 -33 -2 -11 -13 -87 -24 -170 -11 -82 -23
-166 -25 -185 -3 -19 -10 -71 -15 -115 -6 -44 -17 -134 -26 -200 -9 -66 -23
-169 -30 -230 -8 -60 -28 -216 -45 -345 -17 -129 -37 -284 -45 -345 -8 -60
-28 -218 -45 -350 -17 -132 -37 -289 -45 -350 -7 -60 -28 -218 -45 -350 -17
-132 -38 -294 -46 -360 -14 -120 -21 -171 -30 -212 -4 -20 0 -23 30 -23 19 0
37 3 39 8 3 4 8 36 11 72 11 108 58 514 91 795 8 66 21 183 30 260 8 77 17
160 20 185 17 140 68 593 80 700 8 69 39 346 69 615 62 552 71 645 62 645 -3
0 -6 -6 -7 -12z"/>
<path d="M0 1361 l0 -1361 620 0 c584 0 620 1 620 18 -2 53 -52 592 -84 892
-8 74 -17 167 -21 205 -3 39 -10 108 -16 155 -5 47 -21 186 -35 310 -14 124
-29 263 -35 310 -15 135 -41 304 -49 320 -5 9 -25 21 -47 29 -246 86 -740 335
-930 468 l-23 15 0 -1361z"/>
</g>
</svg>
